<?xml version="1.0" encoding="UTF-8" standalone="no"?>
<!-- Created with Inkscape (http://www.inkscape.org/) -->

<svg
   width="210mm"
   height="297mm"
   viewBox="-3 0 210 297"
   version="1.1"
   id="svg1"
   inkscape:version="1.3.2 (091e20e, 2023-11-25, custom)"
   sodipodi:docname="black_hole_texture.svg"
   xmlns:inkscape="http://www.inkscape.org/namespaces/inkscape"
   xmlns:sodipodi="http://sodipodi.sourceforge.net/DTD/sodipodi-0.dtd"
   xmlns="http://www.w3.org/2000/svg"
   xmlns:svg="http://www.w3.org/2000/svg">
  <sodipodi:namedview
     id="namedview1"
     pagecolor="#353535"
     bordercolor="#000000"
     borderopacity="0.25"
     inkscape:showpageshadow="2"
     inkscape:pageopacity="0.0"
     inkscape:pagecheckerboard="0"
     inkscape:deskcolor="#353535"
     inkscape:document-units="mm"
     inkscape:zoom="0.85882608"
     inkscape:cx="514.65601"
     inkscape:cy="298.6635"
     inkscape:window-width="2560"
     inkscape:window-height="1377"
     inkscape:window-x="1912"
     inkscape:window-y="-8"
     inkscape:window-maximized="1"
     inkscape:current-layer="layer1" />
  <defs
     id="defs1">
    <inkscape:path-effect
       effect="powerstroke"
       id="path-effect9"
       is_visible="true"
       lpeversion="1.3"
       scale_width="1"
       interpolator_type="CentripetalCatmullRom"
       interpolator_beta="0.2"
       start_linecap_type="zerowidth"
       end_linecap_type="zerowidth"
       offset_points="4.6816568,9.0185749 | 2.4315555,3.9634262 | 5.7902139,2.1096522"
       linejoin_type="round"
       miter_limit="4"
       not_jump="false"
       sort_points="true"
       message="&lt;b&gt;Ctrl + clic&lt;/b&gt; sobre un nodo existente y muévalo" />
    <inkscape:path-effect
       effect="powerstroke"
       id="path-effect7"
       is_visible="true"
       lpeversion="1.3"
       scale_width="1"
       interpolator_type="CentripetalCatmullRom"
       interpolator_beta="0.2"
       start_linecap_type="zerowidth"
       end_linecap_type="zerowidth"
       offset_points="4.6816568,9.0185749 | 2.4315555,3.9634262 | 5.7902139,2.1096522"
       linejoin_type="round"
       miter_limit="4"
       not_jump="false"
       sort_points="true"
       message="&lt;b&gt;Ctrl + clic&lt;/b&gt; sobre un nodo existente y muévalo" />
  </defs>
  <g
     inkscape:label="Capa 1"
     inkscape:groupmode="layer"
     id="layer1">
    <g
       id="g10">
      <circle
         style="fill:#826ac7;fill-opacity:0.495146;stroke:#000000;stroke-width:0.767336;stroke-opacity:0"
         id="circle4"
         cx="52.051121"
         cy="54.875019"
         r="52.96357" />
      <circle
         style="fill:#826ac7;fill-opacity:0.495146;stroke:#000000;stroke-width:0.641225;stroke-opacity:0"
         id="circle5"
         cx="52.051121"
         cy="54.875019"
         r="44.259071" />
      <circle
         style="fill:#826ac7;fill-opacity:0.495146;stroke:#000000;stroke-width:0.393795;stroke-opacity:0"
         id="circle6"
         cx="52.051121"
         cy="54.875019"
         r="27.180864" />
    </g>
    <g
       id="g9"
       transform="translate(55.453602,-86.569235)">
      <path
         sodipodi:type="spiral"
         style="fill:#ba99de;fill-opacity:0.911003;fill-rule:nonzero;stroke:none;stroke-width:0.264583"
         id="path6"
         sodipodi:cx="104.56432"
         sodipodi:cy="123.50116"
         sodipodi:expansion="2.21"
         sodipodi:revolution="2.0212214"
         sodipodi:radius="87.439072"
         sodipodi:argument="-18.200296"
         sodipodi:t0="0.26156366"
         d="m 101.51617,120.17189 c 0.18067,-0.48711 0.43967,-0.99115 0.81357,-1.46577 0.30031,-0.38123 0.66575,-0.73194 1.10538,-1.03591 0.73657,-0.50929 1.66053,-0.87127 2.74654,-1.02619 0.93901,-0.13395 1.97416,-0.10754 3.00579,0.1019 0.95062,0.193 1.86033,0.53522 2.60287,1.0006 1.74479,0.88656 3.04631,2.14059 3.96562,3.61503 0.90196,1.44661 1.4491,3.12759 1.66308,4.90785 0.21437,1.78356 0.0904,3.6371 -0.32442,5.39833 -0.42487,1.80398 -1.1396,3.44952 -2.04465,4.80704 -1.70549,2.81238 -3.92196,4.79527 -6.29336,6.14862 -1.8505,1.05607 -3.83038,1.74932 -5.81503,2.15111 -0.77395,0.15668 -1.56459,0.27002 -2.36727,0.33992 -2.897701,0.25236 -5.918457,-0.0646 -8.810228,-0.91356 -2.852245,-0.83736 -5.500068,-2.16916 -7.722909,-3.8838 -3.876335,-2.74924 -6.673325,-6.18891 -8.565285,-9.95684 -1.908594,-3.80106 -2.931912,-8.00773 -3.161887,-12.30557 -0.234091,-4.37478 0.355502,-8.80278 1.634365,-12.96404 1.315715,-4.28118 3.330503,-8.189001 5.844418,-11.500227 4.004994,-5.464661 8.88964,-9.3976 14.084016,-12.126643 5.534949,-2.907975 11.55461,-4.520701 17.5627,-5.104132 4.68678,-0.455122 9.35465,-0.284201 13.83132,0.371252 1.74287,0.255183 3.48367,0.587359 5.21404,0.997341 6.38299,1.512339 12.52855,4.060597 18.03793,7.595202 7.91725,5.285911 14.01661,11.871581 18.54218,19.097687 5.01898,8.01394 8.02108,16.6787 9.51799,25.08365 1.87549,10.53066 1.33941,20.25993 -0.0698,28.09322 -0.28796,1.60067 -0.61143,3.11942 -0.95639,4.55035 -2.69637,11.18505 -6.80863,19.25615 -8.99074,23.00821 2.6947,-3.23954 8.66456,-10.64018 13.01307,-21.73407 0.56441,-1.43994 1.12515,-2.97907 1.66492,-4.61435 2.62335,-7.94772 4.79077,-18.32723 4.32712,-30.2387 -0.3699,-9.50289 -2.43468,-19.97167 -7.28717,-30.213644 C 173.89117,89.084117 167.251,80.109967 157.845,72.650373 151.21293,67.2535 143.47287,63.165321 135.17387,60.647197 c -2.24956,-0.682572 -4.53173,-1.247113 -6.83374,-1.690419 -5.90682,-1.137496 -12.19997,-1.526867 -18.61884,-0.941796 -8.23017,0.750167 -16.705913,3.112416 -24.566967,7.557586 -7.430627,4.201778 -14.223487,10.222898 -19.520366,18.26259 -3.413644,5.291109 -5.807457,11.247934 -7.082919,17.451932 -1.240705,6.03494 -1.42559,12.32334 -0.433872,18.42912 0.977342,6.01725 3.099138,11.85751 6.470975,17.04152 3.364265,5.17236 7.907555,9.58967 13.610655,12.85709 3.666414,1.98827 7.649944,3.25644 11.62368,3.85136 4.040131,0.60486 8.11878,0.52251 11.966774,-0.23393 1.07045,-0.21043 2.12424,-0.4732 3.15621,-0.78837 2.64702,-0.80841 5.28862,-2.01967 7.73465,-3.73299 3.16308,-2.21559 5.95478,-5.24235 7.94169,-9.19232 1.02107,-2.16581 1.6666,-4.56364 1.90356,-7.00584 0.23224,-2.39352 0.0732,-4.84007 -0.52289,-7.15107 -0.59743,-2.31637 -1.63084,-4.48102 -3.12891,-6.29454 -1.53817,-1.86206 -3.50854,-3.28479 -5.86675,-4.15681 -1.19818,-0.36959 -2.46465,-0.51016 -3.65413,-0.47199 -1.30309,0.0418 -2.52651,0.29658 -3.5828,0.71298 -1.22767,0.48396 -2.17835,1.16318 -2.86046,1.93739 -0.40455,0.45917 -0.70308,0.93781 -0.91964,1.41207 -0.26834,0.58767 -0.40699,1.16002 -0.47361,1.67113 z"
         transform="matrix(0.37097499,-0.14583591,0.14844658,0.38783385,43.470965,93.465571)"
         inkscape:path-effect="#path-effect7" />
      <path
         sodipodi:type="spiral"
         style="fill:#c799de;fill-opacity:0.875405;fill-rule:nonzero;stroke:none;stroke-width:0.264583"
         id="path8"
         sodipodi:cx="104.56432"
         sodipodi:cy="123.50116"
         sodipodi:expansion="2.21"
         sodipodi:revolution="2.0212214"
         sodipodi:radius="87.439072"
         sodipodi:argument="-18.200296"
         sodipodi:t0="0.26156366"
         d="m 101.51617,120.17189 c 0.18067,-0.48711 0.43967,-0.99115 0.81357,-1.46577 0.30031,-0.38123 0.66575,-0.73194 1.10538,-1.03591 0.73657,-0.50929 1.66053,-0.87127 2.74654,-1.02619 0.93901,-0.13395 1.97416,-0.10754 3.00579,0.1019 0.95062,0.193 1.86033,0.53522 2.60287,1.0006 1.74479,0.88656 3.04631,2.14059 3.96562,3.61503 0.90196,1.44661 1.4491,3.12759 1.66308,4.90785 0.21437,1.78356 0.0904,3.6371 -0.32442,5.39833 -0.42487,1.80398 -1.1396,3.44952 -2.04465,4.80704 -1.70549,2.81238 -3.92196,4.79527 -6.29336,6.14862 -1.8505,1.05607 -3.83038,1.74932 -5.81503,2.15111 -0.77395,0.15668 -1.56459,0.27002 -2.36727,0.33992 -2.897701,0.25236 -5.918457,-0.0646 -8.810228,-0.91356 -2.852245,-0.83736 -5.500068,-2.16916 -7.722909,-3.8838 -3.876335,-2.74924 -6.673325,-6.18891 -8.565285,-9.95684 -1.908594,-3.80106 -2.931912,-8.00773 -3.161887,-12.30557 -0.234091,-4.37478 0.355502,-8.80278 1.634365,-12.96404 1.315715,-4.28118 3.330503,-8.189001 5.844418,-11.500227 4.004994,-5.464661 8.88964,-9.3976 14.084016,-12.126643 5.534949,-2.907975 11.55461,-4.520701 17.5627,-5.104132 4.68678,-0.455122 9.35465,-0.284201 13.83132,0.371252 1.74287,0.255183 3.48367,0.587359 5.21404,0.997341 6.38299,1.512339 12.52855,4.060597 18.03793,7.595202 7.91725,5.285911 14.01661,11.871581 18.54218,19.097687 5.01898,8.01394 8.02108,16.6787 9.51799,25.08365 1.87549,10.53066 1.33941,20.25993 -0.0698,28.09322 -0.28796,1.60067 -0.61143,3.11942 -0.95639,4.55035 -2.69637,11.18505 -6.80863,19.25615 -8.99074,23.00821 2.6947,-3.23954 8.66456,-10.64018 13.01307,-21.73407 0.56441,-1.43994 1.12515,-2.97907 1.66492,-4.61435 2.62335,-7.94772 4.79077,-18.32723 4.32712,-30.2387 -0.3699,-9.50289 -2.43468,-19.97167 -7.28717,-30.213644 C 173.89117,89.084117 167.251,80.109967 157.845,72.650373 151.21293,67.2535 143.47287,63.165321 135.17387,60.647197 c -2.24956,-0.682572 -4.53173,-1.247113 -6.83374,-1.690419 -5.90682,-1.137496 -12.19997,-1.526867 -18.61884,-0.941796 -8.23017,0.750167 -16.705913,3.112416 -24.566967,7.557586 -7.430627,4.201778 -14.223487,10.222898 -19.520366,18.26259 -3.413644,5.291109 -5.807457,11.247934 -7.082919,17.451932 -1.240705,6.03494 -1.42559,12.32334 -0.433872,18.42912 0.977342,6.01725 3.099138,11.85751 6.470975,17.04152 3.364265,5.17236 7.907555,9.58967 13.610655,12.85709 3.666414,1.98827 7.649944,3.25644 11.62368,3.85136 4.040131,0.60486 8.11878,0.52251 11.966774,-0.23393 1.07045,-0.21043 2.12424,-0.4732 3.15621,-0.78837 2.64702,-0.80841 5.28862,-2.01967 7.73465,-3.73299 3.16308,-2.21559 5.95478,-5.24235 7.94169,-9.19232 1.02107,-2.16581 1.6666,-4.56364 1.90356,-7.00584 0.23224,-2.39352 0.0732,-4.84007 -0.52289,-7.15107 -0.59743,-2.31637 -1.63084,-4.48102 -3.12891,-6.29454 -1.53817,-1.86206 -3.50854,-3.28479 -5.86675,-4.15681 -1.19818,-0.36959 -2.46465,-0.51016 -3.65413,-0.47199 -1.30309,0.0418 -2.52651,0.29658 -3.5828,0.71298 -1.22767,0.48396 -2.17835,1.16318 -2.86046,1.93739 -0.40455,0.45917 -0.70308,0.93781 -0.91964,1.41207 -0.26834,0.58767 -0.40699,1.16002 -0.47361,1.67113 z"
         transform="matrix(-0.37097499,0.14583591,-0.14844658,-0.38783385,159.43862,160.51482)"
         inkscape:path-effect="#path-effect9" />
    </g>
    <circle
       style="fill:#000000;fill-opacity:1;stroke:#000000;stroke-width:0.131857;stroke-opacity:0.993528"
       id="path4"
       cx="155.87259"
       cy="98.313675"
       r="9.101099" />
  </g>
</svg>
